<svg width="146" height="133" viewBox="0 0 146 133" fill="none" xmlns="http://www.w3.org/2000/svg">
<mask id="mask0_265_3779" style="mask-type:luminance" maskUnits="userSpaceOnUse" x="77" y="0" width="69" height="133">
<path d="M104.208 118.457C97.1672 118.457 91.4392 112.731 91.4392 105.689V11.4226L77.7578 -8.97801e-05V105.689C77.7578 120.275 89.6232 132.14 104.208 132.14H145.196V118.457H104.208Z" fill="white"/>
</mask>
<g mask="url(#mask0_265_3779)">
<path d="M101.8 132.164V132.03H100.734V131.897H99.9337V131.764H99.0003V131.63H98.467V131.497H97.9337V131.364H97.4003V131.23H96.867V131.097H96.3337V130.964H95.9337V130.83H95.667V130.697H95.267V130.564H94.867V130.43H94.467V130.297H94.2003V130.164H93.8003V130.03H93.5337V129.897H93.267V129.764H93.0003V129.63H92.7337V129.497H92.467V129.364H92.2003V129.23H91.8003V129.097H91.5337V128.964H91.4003V128.83H91.1337V128.697H90.867V128.564H90.7337V128.43H90.467V128.297H90.2003V128.164H90.067V128.03H89.8003V127.897H89.667V127.764H89.4003V127.63H89.267V127.497H89.0003V127.364H88.867V127.23H88.7337V127.097H88.467V126.964H88.3337V126.83H88.2003V126.697H87.9337V126.564H87.8003V126.43H87.667V126.297H87.4003V126.164H87.267V126.03H87.1337V125.897H87.0003V125.764H86.867V125.63H86.7337V125.497H86.467V125.364H86.3337V125.23H86.2003V125.097H86.067V124.964H85.9337V124.83H85.8003V124.697H85.667V124.564H85.5337V124.43H85.4003V124.297H85.267V124.164H85.1337V124.03H85.0003V123.897H84.867V123.764H84.7337V123.63H84.6003V123.497H84.467V123.364H84.3337V123.097H84.2003V122.964H84.067V122.83H83.9337V122.697H83.8003V122.564H83.667V122.43H83.5337V122.164H83.4003V122.03H83.267V121.897H83.1337V121.63H83.0003V121.497H82.867V121.364H82.7337V121.097H82.6003V120.964H82.467V120.83H82.3337V120.564H82.2003V120.43H82.067V120.164H81.9337V119.897H81.8003V119.764H81.667V119.497H81.5337V119.364H81.4003V119.097H81.267V118.83H81.1337V118.697H81.0003V118.43H80.867V118.164H80.7337V117.897H80.6003V117.63H80.467V117.364H80.3337V117.097H80.2003V116.83H80.067V116.564H79.9337V116.297H79.8003V115.897H79.667V115.63H79.5337V115.23H79.4003V114.83H79.267V114.43H79.1337V114.164H79.0003V113.764H78.867V113.23H78.7337V112.83H78.6003V112.297H78.467V111.764H78.3337V111.23H78.2003V110.43H78.067V109.63H77.9337V108.697H77.8003V107.097H77.667V0.0304929H78.067V0.163826H78.2003V0.29716H78.3337V0.430493H78.467V0.563826H78.6003V0.69716H78.867V0.830493H79.0003V0.963826H79.1337V1.09716H79.267V1.23049H79.4003V1.36383H79.667V1.49716H79.8003V1.63049H79.9337V1.76383H80.067V1.89716H80.2003V2.03049H80.467V2.16383H80.6003V2.29716H80.7337V2.43049H80.867V2.56383H81.0003V2.69716H81.267V2.83049H81.4003V2.96383H81.5337V3.09716H81.667V3.23049H81.8003V3.36383H82.067V3.49716H82.2003V3.63049H82.3337V3.76383H82.467V3.89716H82.6003V4.03049H82.867V4.16383H83.0003V4.29716H83.1337V4.43049H83.267V4.56383H83.4003V4.69716H83.667V4.83049H83.8003V4.96383H83.9337V5.09716H84.067V5.23049H84.2003V5.36383H84.467V5.49716H84.6003V5.63049H84.7337V5.76383H84.867V5.89716H85.0003V6.03049H85.267V6.16383H85.4003V6.29716H85.5337V6.43049H85.667V6.56383H85.8003V6.69716H86.067V6.83049H86.2003V6.96383H86.3337V7.09716H86.467V7.23049H86.6003V7.36383H86.867V7.49716H87.0003V7.63049H87.1337V7.76383H87.267V7.89716H87.4003V8.03049H87.667V8.16383H87.8003V8.29716H87.9337V8.43049H88.067V8.56383H88.2003V8.69716H88.467V8.83049H88.6003V8.96383H88.7337V9.09716H88.867V9.23049H89.0003V9.36383H89.1337V9.49716H89.4003V9.63049H89.5337V9.76383H89.667V9.89716H89.8003V10.0305H89.9337V10.1638H90.2003V10.2972H90.3337V10.4305H90.467V10.5638H90.6003V10.6972H90.7337V10.8305H91.0003V10.9638H91.1337V11.0972H91.267V11.2305H91.4003V11.3638H91.5337V107.097H91.667V108.03H91.8003V108.564H91.9337V109.097H92.067V109.497H92.2003V109.897H92.3337V110.297H92.467V110.697H92.6003V110.964H92.7337V111.23H92.867V111.497H93.0003V111.764H93.1337V111.897H93.267V112.164H93.4003V112.43H93.5337V112.564H93.667V112.83H93.8003V112.964H93.9337V113.23H94.067V113.364H94.2003V113.497H94.3337V113.764H94.467V113.897H94.6003V114.03H94.7337V114.164H94.867V114.297H95.0003V114.43H95.1337V114.564H95.267V114.697H95.4003V114.83H95.5337V114.964H95.667V115.097H95.8003V115.23H95.9337V115.364H96.067V115.497H96.3337V115.63H96.467V115.764H96.6003V115.897H96.867V116.03H97.0003V116.164H97.1337V116.297H97.4003V116.43H97.667V116.564H97.8003V116.697H98.067V116.83H98.3337V116.964H98.6003V117.097H98.867V117.23H99.1337V117.364H99.4003V117.497H99.8003V117.63H100.2V117.764H100.6V117.897H101V118.03H101.534V118.164H102.334V118.297H103.534V118.43H145.267V132.164" fill="#26363F"/>
</g>
<mask id="mask1_265_3779" style="mask-type:luminance" maskUnits="userSpaceOnUse" x="100" y="19" width="46" height="91">
<path d="M114.243 95.6546V30.4586L100.561 19.0373V105.689C100.561 107.7 102.198 109.336 104.209 109.336H145.197V95.6546H114.243Z" fill="white"/>
</mask>
<g mask="url(#mask1_265_3779)">
<path d="M114.243 95.6546V30.4586L100.561 19.0373V105.689C100.561 107.7 102.198 109.336 104.209 109.336H145.197V95.6546H114.243Z" fill="#26363F"/>
</g>
<mask id="mask2_265_3779" style="mask-type:luminance" maskUnits="userSpaceOnUse" x="0" y="0" width="68" height="133">
<path d="M53.5573 105.933C53.5573 112.973 47.8293 118.701 40.788 118.701H0V132.383H40.788C55.3747 132.383 67.2387 120.519 67.2387 105.933V-8.97656e-05L53.5573 11.4226V105.933Z" fill="white"/>
</mask>
<g mask="url(#mask2_265_3779)">
<path d="M-0.0664062 132.431V118.697H41.1336V118.564H42.4669V118.431H43.4003V118.297H43.8003V118.164H44.3336V118.031H44.7336V117.897H45.1336V117.764H45.5336V117.631H45.8003V117.497H46.0669V117.364H46.3336V117.231H46.6003V117.097H46.8669V116.964H47.1336V116.831H47.4003V116.697H47.5336V116.564H47.8003V116.431H47.9336V116.297H48.2003V116.164H48.3336V116.031H48.4669V115.897H48.7336V115.764H48.8669V115.631H49.0003V115.497H49.1336V115.364H49.2669V115.231H49.4003V115.097H49.5336V114.964H49.8003V114.697H49.9336V114.564H50.0669V114.431H50.2003V114.297H50.3336V114.164H50.4669V114.031H50.6003V113.897H50.7336V113.631H50.8669V113.497H51.0003V113.364H51.1336V113.097H51.2669V112.964H51.4003V112.697H51.5336V112.564H51.6669V112.297H51.8003V112.031H51.9336V111.897H52.0669V111.497H52.2003V111.231H52.3336V110.964H52.4669V110.697H52.6003V110.297H52.7336V110.031H52.8669V109.631H53.0003V109.097H53.1336V108.564H53.2669V107.764H53.4003V106.564H53.5336V11.2307H53.6669V11.0973H53.9336V10.964H54.0669V10.8307H54.2003V10.6973H54.3336V10.564H54.4669V10.4307H54.7336V10.2973H54.8669V10.164H55.0003V10.0307H55.1336V9.89734H55.2669V9.764H55.5336V9.63067H55.6669V9.49734H55.8003V9.364H55.9336V9.23067H56.0669V9.09734H56.3336V8.964H56.4669V8.83067H56.6003V8.69734H56.7336V8.564H56.8669V8.43067H57.1336V8.29734H57.2669V8.164H57.4003V8.03067H57.5336V7.89734H57.6669V7.764H57.9336V7.63067H58.0669V7.49734H58.2003V7.364H58.3336V7.23067H58.4669V7.09734H58.7336V6.964H58.8669V6.83067H59.0003V6.69734H59.1336V6.564H59.2669V6.43067H59.5336V6.29734H59.6669V6.164H59.8003V6.03067H59.9336V5.89734H60.0669V5.764H60.3336V5.63067H60.4669V5.49734H60.6003V5.364H60.7336V5.23067H60.8669V5.09734H61.1336V4.964H61.2669V4.83067H61.4003V4.69734H61.5336V4.56401H61.6669V4.43067H61.8003V4.29734H62.0669V4.16401H62.2003V4.03067H62.3336V3.89734H62.4669V3.76401H62.6003V3.63067H62.8669V3.49734H63.0003V3.36401H63.1336V3.23067H63.2669V3.09734H63.4003V2.96401H63.6669V2.83067H63.8003V2.69734H63.9336V2.56401H64.0669V2.43067H64.2003V2.29734H64.4669V2.16401H64.6003V2.03067H64.7336V1.89734H64.8669V1.76401H65.0003V1.63067H65.2669V1.49734H65.4003V1.36401H65.5336V1.23067H65.6669V1.09734H65.8003V0.964005H66.0669V0.830672H66.2003V0.697339H66.3336V0.564005H66.4669V0.430672H66.6003V0.297339H66.8669V0.164005H67.0003V0.030672H67.2669V108.297H67.1336V109.364H67.0003V110.297H66.8669V111.097H66.7336V111.764H66.6003V112.164H66.4669V112.697H66.3336V113.231H66.2003V113.764H66.0669V114.164H65.9336V114.564H65.8003V114.831H65.6669V115.231H65.5336V115.631H65.4003V116.031H65.2669V116.297H65.1336V116.564H65.0003V116.831H64.8669V117.097H64.7336V117.497H64.6003V117.764H64.4669V118.031H64.3336V118.297H64.2003V118.564H64.0669V118.831H63.9336V118.964H63.8003V119.231H63.6669V119.497H63.5336V119.631H63.4003V119.897H63.2669V120.031H63.1336V120.297H63.0003V120.564H62.8669V120.697H62.7336V120.964H62.6003V121.097H62.4669V121.231H62.3336V121.497H62.2003V121.631H62.0669V121.764H61.9336V122.031H61.8003V122.164H61.6669V122.297H61.5336V122.564H61.4003V122.697H61.2669V122.831H61.1336V122.964H61.0003V123.231H60.8669V123.364H60.7336V123.497H60.6003V123.631H60.4669V123.764H60.3336V123.897H60.2003V124.031H60.0669V124.164H59.9336V124.297H59.8003V124.431H59.6669V124.697H59.5336V124.831H59.2669V124.964H59.1336V125.097H59.0003V125.231H58.8669V125.364H58.7336V125.497H58.6003V125.631H58.4669V125.764H58.3336V125.897H58.2003V126.031H58.0669V126.164H57.8003V126.297H57.6669V126.431H57.5336V126.564H57.4003V126.697H57.1336V126.831H57.0003V126.964H56.8669V127.097H56.6003V127.231H56.4669V127.364H56.3336V127.497H56.0669V127.631H55.9336V127.764H55.8003V127.897H55.5336V128.031H55.4003V128.164H55.1336V128.297H54.8669V128.431H54.7336V128.564H54.4669V128.697H54.2003V128.831H54.0669V128.964H53.8003V129.097H53.5336V129.231H53.4003V129.364H53.1336V129.497H52.8669V129.631H52.4669V129.764H52.2003V129.897H51.9336V130.031H51.6669V130.164H51.4003V130.297H51.1336V130.431H50.7336V130.564H50.4669V130.697H50.0669V130.831H49.6669V130.964H49.4003V131.097H49.0003V131.231H48.6003V131.364H48.0669V131.497H47.5336V131.631H47.0003V131.764H46.4669V131.897H45.8003V132.031H45.0003V132.164H44.0669V132.297H42.8669V132.431" fill="#26363F"/>
</g>
<mask id="mask3_265_3779" style="mask-type:luminance" maskUnits="userSpaceOnUse" x="0" y="19" width="45" height="91">
<path d="M40.788 109.58C42.7987 109.58 44.436 107.944 44.436 105.933V19.0374L30.7547 30.4587V95.8987H0V109.58H40.788Z" fill="white"/>
</mask>
<g mask="url(#mask3_265_3779)">
<path d="M40.788 109.58C42.7987 109.58 44.436 107.944 44.436 105.933V19.0374L30.7547 30.4587V95.8987H0V109.58H40.788Z" fill="#26363F"/>
</g>
</svg>
